<svg xmlns="http://www.w3.org/2000/svg" width="150" viewBox="0 0 150 45" height="45" version="1.0"><defs><clipPath id="a"><path d="M 107.882812 5.359375 L 149.132812 5.359375 L 149.132812 19 L 107.882812 19 Z M 107.882812 5.359375"/></clipPath><clipPath id="b"><path d="M 119 5.359375 L 149.132812 5.359375 L 149.132812 27 L 119 27 Z M 119 5.359375"/></clipPath><clipPath id="c"><path d="M 115 16 L 122 16 L 122 29.359375 L 115 29.359375 Z M 115 16"/></clipPath><clipPath id="d"><path d="M 119 22 L 128 22 L 128 29.359375 L 119 29.359375 Z M 119 22"/></clipPath></defs><g fill="#0A6CCD"><g><g><path d="M 18.90625 -23.328125 L 18.5 -17.953125 L 13.640625 -18.171875 L 13.203125 -18.171875 L 13.015625 -7.734375 L 13.3125 0 L 5.9375 0 L 6.296875 -7 L 6.125 -18.171875 L 5.640625 -18.171875 L 0.734375 -17.953125 L 0.296875 -18.46875 L 0.703125 -23.84375 L 18.5 -23.84375 Z M 18.90625 -23.328125" transform="translate(1.102 35.883)"/></g></g></g><g fill="#0A6CCD"><g><g><path d="M 9.46875 -17.84375 C 12.21875 -17.84375 14.289062 -17.101562 15.6875 -15.625 C 17.09375 -14.15625 17.796875 -11.984375 17.796875 -9.109375 C 17.796875 -5.960938 17.039062 -3.582031 15.53125 -1.96875 C 14.019531 -0.363281 11.789062 0.4375 8.84375 0.4375 C 6.09375 0.4375 4.015625 -0.289062 2.609375 -1.75 C 1.210938 -3.207031 0.515625 -5.363281 0.515625 -8.21875 C 0.515625 -11.382812 1.269531 -13.78125 2.78125 -15.40625 C 4.289062 -17.03125 6.519531 -17.84375 9.46875 -17.84375 Z M 8.953125 -13.015625 C 8.460938 -13.015625 8.09375 -12.921875 7.84375 -12.734375 C 7.601562 -12.546875 7.4375 -12.207031 7.34375 -11.71875 C 7.257812 -11.226562 7.21875 -10.476562 7.21875 -9.46875 C 7.21875 -7.96875 7.273438 -6.851562 7.390625 -6.125 C 7.503906 -5.40625 7.707031 -4.90625 8 -4.625 C 8.289062 -4.34375 8.742188 -4.203125 9.359375 -4.203125 C 9.847656 -4.203125 10.207031 -4.289062 10.4375 -4.46875 C 10.675781 -4.65625 10.835938 -5 10.921875 -5.5 C 11.015625 -6.007812 11.0625 -6.769531 11.0625 -7.78125 C 11.0625 -9.25 11.003906 -10.34375 10.890625 -11.0625 C 10.773438 -11.789062 10.570312 -12.296875 10.28125 -12.578125 C 9.988281 -12.867188 9.546875 -13.015625 8.953125 -13.015625 Z M 8.953125 -13.015625" transform="translate(20.218 35.883)"/></g></g></g><g fill="#0A6CCD"><g><g><path d="M 19.3125 -4.421875 L 18.6875 -0.734375 C 17.507812 0.0234375 16.28125 0.394531 15 0.375 C 13.570312 0.0703125 12.539062 -0.960938 11.90625 -2.734375 L 11.46875 -2.734375 C 10.78125 -1.960938 10.101562 -1.335938 9.4375 -0.859375 C 8.769531 -0.378906 8.03125 -0.0195312 7.21875 0.21875 C 5.40625 0.21875 4 -0.195312 3 -1.03125 C 2.007812 -1.863281 1.515625 -3.066406 1.515625 -4.640625 L 1.625 -8.4375 L 1.40625 -16.984375 L 8.21875 -17.46875 L 8.21875 -7.484375 C 8.21875 -6.742188 8.335938 -6.21875 8.578125 -5.90625 C 8.828125 -5.601562 9.210938 -5.453125 9.734375 -5.453125 C 10.046875 -5.453125 10.316406 -5.492188 10.546875 -5.578125 C 10.785156 -5.671875 11.039062 -5.816406 11.3125 -6.015625 L 11.3125 -16.984375 L 18.140625 -17.46875 L 17.734375 -5.453125 C 17.734375 -5.179688 17.773438 -4.984375 17.859375 -4.859375 C 17.941406 -4.742188 18.070312 -4.6875 18.25 -4.6875 C 18.414062 -4.6875 18.625 -4.722656 18.875 -4.796875 Z M 19.3125 -4.421875" transform="translate(38.524 35.883)"/></g></g></g><g fill="#0A6CCD"><g><g><path d="M 12.9375 -17.4375 C 13.257812 -17.4375 13.539062 -17.410156 13.78125 -17.359375 L 13.78125 -10.90625 L 13.078125 -10.6875 C 12.765625 -10.882812 12.328125 -10.984375 11.765625 -10.984375 C 11.222656 -10.984375 10.648438 -10.859375 10.046875 -10.609375 C 9.441406 -10.367188 8.878906 -10.023438 8.359375 -9.578125 L 8.359375 -7.734375 L 8.65625 0 L 1.46875 0 L 1.8125 -7 L 1.546875 -16.984375 L 8.359375 -17.46875 L 8.359375 -14.234375 L 8.703125 -14.234375 C 9.753906 -16.367188 11.164062 -17.4375 12.9375 -17.4375 Z M 12.9375 -17.4375" transform="translate(58.266 35.883)"/></g></g></g><g fill="#0A6CCD"><g><g><path d="M 21.484375 0 L 21.859375 -9.765625 C 21.859375 -11.265625 21.28125 -12.015625 20.125 -12.015625 C 19.582031 -12.015625 19.003906 -11.851562 18.390625 -11.53125 L 18.28125 -7.734375 L 18.578125 0 L 11.46875 0 L 11.828125 -9.765625 C 11.828125 -11.265625 11.238281 -12.015625 10.0625 -12.015625 C 9.5 -12.015625 8.910156 -11.84375 8.296875 -11.5 L 8.296875 -7.734375 L 8.59375 0 L 1.46875 0 L 1.8125 -7 L 1.546875 -16.984375 L 8.296875 -17.46875 L 8.296875 -14.890625 L 8.546875 -14.890625 C 9.847656 -16.191406 11.285156 -17.101562 12.859375 -17.625 C 14.210938 -17.625 15.335938 -17.390625 16.234375 -16.921875 C 17.128906 -16.453125 17.75 -15.773438 18.09375 -14.890625 L 18.28125 -14.890625 C 19.5625 -16.140625 21.109375 -17.050781 22.921875 -17.625 C 24.742188 -17.625 26.132812 -17.203125 27.09375 -16.359375 C 28.050781 -15.523438 28.519531 -14.320312 28.5 -12.75 L 28.34375 -7.734375 L 28.609375 0 Z M 21.484375 0" transform="translate(77.087 35.883)"/></g></g></g><g fill="#0A6CCD"><g><g><path d="M 4.34375 -7 C 5.425781 -7 6.269531 -6.691406 6.875 -6.078125 C 7.476562 -5.460938 7.78125 -4.601562 7.78125 -3.5 C 7.78125 -2.320312 7.445312 -1.390625 6.78125 -0.703125 C 6.113281 -0.015625 5.203125 0.328125 4.046875 0.328125 C 2.921875 0.328125 2.0625 0.03125 1.46875 -0.5625 C 0.882812 -1.164062 0.59375 -2.035156 0.59375 -3.171875 C 0.59375 -4.347656 0.925781 -5.28125 1.59375 -5.96875 C 2.269531 -6.65625 3.1875 -7 4.34375 -7 Z M 4.34375 -7" transform="translate(107.068 35.883)"/></g></g></g><g clip-path="url(#a)"><path fill="#0A6CCD" d="M 110.273438 12.765625 L 116.285156 16.695312 L 141.671875 7.761719 Z M 116.203125 18.015625 C 116.082031 18.015625 115.964844 17.984375 115.863281 17.914062 L 108.230469 12.925781 C 108.015625 12.785156 107.910156 12.523438 107.960938 12.269531 C 108.015625 12.015625 108.21875 11.820312 108.472656 11.78125 L 148.328125 5.433594 C 148.652344 5.382812 148.949219 5.585938 149.027344 5.898438 C 149.105469 6.214844 148.933594 6.539062 148.628906 6.644531 L 116.40625 17.980469 C 116.339844 18.003906 116.273438 18.015625 116.203125 18.015625"/></g><g clip-path="url(#b)"><path fill="#0A6CCD" d="M 121.890625 19.65625 L 131.921875 25.503906 L 146.179688 7.84375 Z M 132.070312 26.945312 C 131.964844 26.945312 131.859375 26.917969 131.757812 26.859375 L 120.25 20.148438 C 120.050781 20.03125 119.933594 19.8125 119.941406 19.582031 C 119.949219 19.351562 120.085938 19.140625 120.292969 19.039062 L 148.152344 5.488281 C 148.417969 5.359375 148.730469 5.433594 148.914062 5.664062 C 149.09375 5.894531 149.09375 6.21875 148.90625 6.449219 L 132.554688 26.714844 C 132.433594 26.863281 132.253906 26.945312 132.070312 26.945312"/></g><g clip-path="url(#c)"><path fill="#0A6CCD" d="M 120.5625 29.359375 C 120.308594 29.359375 120.078125 29.203125 119.984375 28.957031 L 115.621094 17.617188 C 115.5 17.292969 115.65625 16.929688 115.976562 16.804688 C 116.296875 16.679688 116.660156 16.839844 116.78125 17.164062 L 119.941406 25.375 L 119.941406 19.605469 C 119.941406 19.257812 120.21875 18.976562 120.5625 18.976562 C 120.90625 18.976562 121.1875 19.257812 121.1875 19.605469 L 121.1875 28.730469 C 121.1875 29.03125 120.972656 29.292969 120.675781 29.347656 C 120.640625 29.355469 120.601562 29.359375 120.5625 29.359375"/></g><g clip-path="url(#d)"><path fill="#0A6CCD" d="M 120.5625 29.359375 C 120.386719 29.359375 120.207031 29.28125 120.085938 29.132812 C 119.863281 28.867188 119.902344 28.46875 120.164062 28.25 L 126.582031 22.863281 C 126.84375 22.644531 127.238281 22.679688 127.457031 22.945312 C 127.675781 23.210938 127.640625 23.605469 127.375 23.828125 L 120.960938 29.210938 C 120.84375 29.308594 120.703125 29.359375 120.5625 29.359375"/></g></svg>